<?xml version="1.0" encoding="utf-8"?>
<svg viewBox="0 0 500 500" xmlns="http://www.w3.org/2000/svg">
  <defs/>
  <path d="M 74.483 128.775 C 74.483 113.951 88.106 101.944 104.921 101.944 L 256.559 101.944 C 264.991 101.944 273.056 105.03 278.809 110.464 L 323.05 152.25 L 385.901 211.598 C 391.152 216.561 394.075 223.107 394.075 229.895 L 394.075 477.56 C 394.075 492.383 380.439 504.39 363.637 504.39 L 104.921 504.39 C 88.106 504.39 74.483 492.383 74.483 477.56 L 74.483 128.775 Z" fill="#E4E2E0" style=""/>
  <mask id="mask0" mask-type="alpha" maskUnits="userSpaceOnUse" x="6" y="1" width="21" height="30">
    <path d="M6 3a2 2 0 0 1 2-2h11.13a2 2 0 0 1 1.463.635l2.324 2.49 3.545 3.799A2 2 0 0 1 27 9.288V29a2 2 0 0 1-2 2H8a2 2 0 0 1-2-2V3Z" fill="#085FF7"/>
  </mask>
  <g mask="url(#mask0)" transform="matrix(15.2186, 0, 0, 13.414851, -16.828627, 88.529855)" style="">
    <path d="M30.5 11H17.667V-2.75l6.416 6.875L30.5 11Z" fill="#D4D2D0"/>
    <path fill="#E4E2E0" d="M6 21h21v10H6zM16.5 6h5.833v6.25H16.5z"/>
    <path d="M24.613 6.443c.597.639.143 1.682-.73 1.682H21.35a1 1 0 0 1-1-1V4.412c0-.908 1.112-1.346 1.731-.682L23.267 5l1.346 1.443Z" fill="#D4D2D0"/>
  </g>
  <rect x="150.836" y="101.944" width="142.035" height="134.149" rx="1" fill="#E4E2E0" style=""/>
  <rect x="252.04" y="197.526" width="142.035" height="134.149" rx="1" fill="#E4E2E0" style=""/>
  <path fill-rule="evenodd" clip-rule="evenodd" d="M 227.554 438.547 C 229.653 439.405 235.402 436.473 241.923 427.568 C 247.528 420.227 244.021 400.635 243.388 401.051 C 242.246 383.22 224.843 281.182 230.247 264.786 C 232.806 257.023 233.78 254.935 236.477 258.749 C 237.154 259.708 238.089 260.695 238.684 262.635 C 238.838 263.137 238.84 263.692 238.814 264.445 C 238.793 265.05 238.699 265.874 239.064 266.213 L 260.379 427.873 C 260.379 434.487 258.584 439.353 255.115 442.583 C 253.365 444.212 234.822 461.35 219.768 458.04 C 204.964 454.784 188.098 438.559 187.215 435.91 C 181.721 419.419 180.373 384.284 176.791 380.903 C 174.67 378.9 191.578 380.627 198.133 419.953 C 200.468 433.963 217.374 440.04 227.554 438.547 Z M 225.896 248.981 C 224.812 248.398 215.647 241.721 217.479 240.958 C 217.974 240.752 240.085 233.11 240.036 234.988 C 240.027 235.321 234.402 254.969 234.402 254.969 L 225.896 248.981 Z" fill="#2557a7" style="transform-origin: -35.92px 394.433px;"/>
  <path fill-rule="evenodd" clip-rule="evenodd" d="M 222.897 198.24 C 246.241 191.048 272.843 191.425 292.81 206.181 C 293.826 206.996 305.979 211.979 310.627 229.97 C 316.643 253.257 310.081 262.37 309.782 262.978 C 287.645 307.967 129.676 300.12 262.423 278.58 C 270.064 277.34 295.224 262.516 297.713 242.9 C 299.213 231.081 290.167 216.732 289.901 216.569 C 283.57 212.894 281.015 209.319 273.848 207.146 C 249.158 200.642 225.299 205.617 205.244 217.425 C 193.406 224.395 182.893 233.745 174.318 244.521 C 164.654 257.359 158.369 270.868 153.21 285.717 C 152.646 287.353 152.205 289.474 151.185 290.895 C 150.167 292.532 150.729 286.495 150.729 286.295 C 151.521 280.178 152.982 274.221 154.777 268.291 C 165.431 236.659 189.005 210.312 222.897 198.24 Z" fill="#2557a7" style=""/>
</svg>